<mxfile host="app.diagrams.net" agent="Mozilla/5.0 (Windows NT 10.0; Win64; x64) AppleWebKit/537.36 (KHTML, like Gecko) Chrome/139.0.0.0 Safari/537.36" version="28.1.2">
  <diagram name="Page-1" id="g-X9vdt8nSMkxj9hLSjI">
    <mxGraphModel dx="2911" dy="1124" grid="1" gridSize="10" guides="1" tooltips="1" connect="1" arrows="1" fold="1" page="1" pageScale="1" pageWidth="827" pageHeight="1169" math="0" shadow="0">
      <root>
        <mxCell id="0" />
        <mxCell id="1" parent="0" />
        <mxCell id="rpKHLiGY3gnb5k6FHx7R-13" value="" style="shape=umlLifeline;perimeter=lifelinePerimeter;whiteSpace=wrap;html=1;container=1;dropTarget=0;collapsible=0;recursiveResize=0;outlineConnect=0;portConstraint=eastwest;newEdgeStyle={&quot;curved&quot;:0,&quot;rounded&quot;:0};participant=umlActor;" vertex="1" parent="1">
          <mxGeometry x="10" y="20" width="20" height="1540" as="geometry" />
        </mxCell>
        <mxCell id="rpKHLiGY3gnb5k6FHx7R-15" value="MyProfilForm" style="shape=umlLifeline;perimeter=lifelinePerimeter;whiteSpace=wrap;html=1;container=1;dropTarget=0;collapsible=0;recursiveResize=0;outlineConnect=0;portConstraint=eastwest;newEdgeStyle={&quot;curved&quot;:0,&quot;rounded&quot;:0};" vertex="1" parent="1">
          <mxGeometry x="280" y="10" width="100" height="1550" as="geometry" />
        </mxCell>
        <mxCell id="rpKHLiGY3gnb5k6FHx7R-16" value="MyReservationsForm" style="shape=umlLifeline;perimeter=lifelinePerimeter;whiteSpace=wrap;html=1;container=1;dropTarget=0;collapsible=0;recursiveResize=0;outlineConnect=0;portConstraint=eastwest;newEdgeStyle={&quot;curved&quot;:0,&quot;rounded&quot;:0};" vertex="1" parent="1">
          <mxGeometry x="430" y="10" width="120" height="1550" as="geometry" />
        </mxCell>
        <mxCell id="rpKHLiGY3gnb5k6FHx7R-18" value="NavigateToMyProfile" style="endArrow=block;endFill=1;html=1;edgeStyle=orthogonalEdgeStyle;align=left;verticalAlign=top;rounded=0;" edge="1" parent="1" source="rpKHLiGY3gnb5k6FHx7R-13" target="rpKHLiGY3gnb5k6FHx7R-15">
          <mxGeometry x="-1" relative="1" as="geometry">
            <mxPoint x="190" y="190" as="sourcePoint" />
            <mxPoint x="350" y="190" as="targetPoint" />
            <Array as="points">
              <mxPoint x="190" y="170" />
              <mxPoint x="190" y="170" />
            </Array>
          </mxGeometry>
        </mxCell>
        <mxCell id="rpKHLiGY3gnb5k6FHx7R-19" value="1" style="edgeLabel;resizable=0;html=1;align=left;verticalAlign=bottom;" connectable="0" vertex="1" parent="rpKHLiGY3gnb5k6FHx7R-18">
          <mxGeometry x="-1" relative="1" as="geometry" />
        </mxCell>
        <mxCell id="rpKHLiGY3gnb5k6FHx7R-20" value="NavigateToMyReservations" style="endArrow=block;endFill=1;html=1;edgeStyle=orthogonalEdgeStyle;align=left;verticalAlign=top;rounded=0;" edge="1" parent="1" target="rpKHLiGY3gnb5k6FHx7R-16">
          <mxGeometry x="-1" relative="1" as="geometry">
            <mxPoint x="20" y="200" as="sourcePoint" />
            <mxPoint x="490" y="210" as="targetPoint" />
            <Array as="points">
              <mxPoint x="225" y="201" />
            </Array>
            <mxPoint as="offset" />
          </mxGeometry>
        </mxCell>
        <mxCell id="rpKHLiGY3gnb5k6FHx7R-21" value="1" style="edgeLabel;resizable=0;html=1;align=left;verticalAlign=bottom;" connectable="0" vertex="1" parent="rpKHLiGY3gnb5k6FHx7R-20">
          <mxGeometry x="-1" relative="1" as="geometry">
            <mxPoint x="-310" as="offset" />
          </mxGeometry>
        </mxCell>
        <mxCell id="rpKHLiGY3gnb5k6FHx7R-22" value="&#xa;&lt;span style=&quot;font-family: Helvetica; font-size: 12px; font-style: normal; font-variant-ligatures: normal; font-variant-caps: normal; font-weight: 400; letter-spacing: normal; orphans: 2; text-align: center; text-indent: 0px; text-transform: none; widows: 2; word-spacing: 0px; -webkit-text-stroke-width: 0px; white-space: normal; background-color: rgb(236, 236, 236); text-decoration-thickness: initial; text-decoration-style: initial; text-decoration-color: initial; float: none; display: inline !important;&quot;&gt;AccommReservationRepo&lt;/span&gt;&#xa;&#xa;" style="shape=umlLifeline;perimeter=lifelinePerimeter;whiteSpace=wrap;html=1;container=1;dropTarget=0;collapsible=0;recursiveResize=0;outlineConnect=0;portConstraint=eastwest;newEdgeStyle={&quot;curved&quot;:0,&quot;rounded&quot;:0};fillColor=default;fontColor=default;" vertex="1" parent="1">
          <mxGeometry x="1040" y="10" width="160" height="1360" as="geometry" />
        </mxCell>
        <mxCell id="rpKHLiGY3gnb5k6FHx7R-23" value="GetUpcomingReservationsForGuest(LoggedInUser.Id)" style="endArrow=block;endFill=1;html=1;edgeStyle=orthogonalEdgeStyle;align=left;verticalAlign=top;rounded=0;" edge="1" parent="1" target="rpKHLiGY3gnb5k6FHx7R-22">
          <mxGeometry x="-1" relative="1" as="geometry">
            <mxPoint x="480" y="240" as="sourcePoint" />
            <mxPoint x="640" y="240" as="targetPoint" />
            <Array as="points">
              <mxPoint x="715" y="241" />
            </Array>
          </mxGeometry>
        </mxCell>
        <mxCell id="rpKHLiGY3gnb5k6FHx7R-24" value="1" style="edgeLabel;resizable=0;html=1;align=left;verticalAlign=bottom;" connectable="0" vertex="1" parent="rpKHLiGY3gnb5k6FHx7R-23">
          <mxGeometry x="-1" relative="1" as="geometry" />
        </mxCell>
        <mxCell id="rpKHLiGY3gnb5k6FHx7R-25" value="Lista rezervacija iz buducnosti" style="html=1;verticalAlign=bottom;endArrow=open;dashed=1;endSize=8;curved=0;rounded=0;" edge="1" parent="1">
          <mxGeometry relative="1" as="geometry">
            <mxPoint x="780.1799999999995" y="490" as="sourcePoint" />
            <mxPoint x="490.0035294117649" y="490" as="targetPoint" />
            <Array as="points">
              <mxPoint x="630.68" y="490" />
            </Array>
          </mxGeometry>
        </mxCell>
        <mxCell id="rpKHLiGY3gnb5k6FHx7R-26" value="&quot;Nema rezervacija za izabranog korisnika&quot;" style="endArrow=block;endFill=1;html=1;edgeStyle=orthogonalEdgeStyle;align=left;verticalAlign=top;rounded=0;" edge="1" parent="1">
          <mxGeometry x="-0.1094" y="-40" relative="1" as="geometry">
            <mxPoint x="489.49999999999955" y="380.0588235294117" as="sourcePoint" />
            <mxPoint x="20" y="380" as="targetPoint" />
            <Array as="points">
              <mxPoint x="225" y="380" />
              <mxPoint x="20" y="381" />
            </Array>
            <mxPoint as="offset" />
          </mxGeometry>
        </mxCell>
        <mxCell id="rpKHLiGY3gnb5k6FHx7R-27" value="1" style="edgeLabel;resizable=0;html=1;align=left;verticalAlign=bottom;" connectable="0" vertex="1" parent="rpKHLiGY3gnb5k6FHx7R-26">
          <mxGeometry x="-1" relative="1" as="geometry" />
        </mxCell>
        <mxCell id="rpKHLiGY3gnb5k6FHx7R-29" value="alt" style="shape=umlFrame;whiteSpace=wrap;html=1;pointerEvents=0;labelBorderColor=none;fontStyle=1;textShadow=1;labelBackgroundColor=#CCCCCC;strokeWidth=3;perimeterSpacing=11;" vertex="1" parent="1">
          <mxGeometry y="310" width="1440" height="430" as="geometry" />
        </mxCell>
        <mxCell id="rpKHLiGY3gnb5k6FHx7R-31" value="[Ako nema rezervacija]" style="text;align=center;fontStyle=1;verticalAlign=middle;spacingLeft=3;spacingRight=3;strokeColor=none;rotatable=0;points=[[0,0.5],[1,0.5]];portConstraint=eastwest;html=1;strokeWidth=4;" vertex="1" parent="1">
          <mxGeometry x="90" y="330" width="80" height="26" as="geometry" />
        </mxCell>
        <mxCell id="rpKHLiGY3gnb5k6FHx7R-32" value="[Ako ima rezervacija]" style="text;align=center;fontStyle=1;verticalAlign=middle;spacingLeft=3;spacingRight=3;strokeColor=none;rotatable=0;points=[[0,0.5],[1,0.5]];portConstraint=eastwest;html=1;strokeWidth=4;fillColor=none;" vertex="1" parent="1">
          <mxGeometry x="90" y="430" width="80" height="26" as="geometry" />
        </mxCell>
        <mxCell id="rpKHLiGY3gnb5k6FHx7R-33" value="GetAll()" style="endArrow=block;endFill=1;html=1;edgeStyle=orthogonalEdgeStyle;align=left;verticalAlign=top;rounded=0;" edge="1" parent="1" target="rpKHLiGY3gnb5k6FHx7R-22">
          <mxGeometry x="-1" relative="1" as="geometry">
            <mxPoint x="490" y="430" as="sourcePoint" />
            <mxPoint x="650" y="430" as="targetPoint" />
            <Array as="points">
              <mxPoint x="490" y="450" />
            </Array>
            <mxPoint as="offset" />
          </mxGeometry>
        </mxCell>
        <mxCell id="rpKHLiGY3gnb5k6FHx7R-34" value="1" style="edgeLabel;resizable=0;html=1;align=left;verticalAlign=bottom;" connectable="0" vertex="1" parent="rpKHLiGY3gnb5k6FHx7R-33">
          <mxGeometry x="-1" relative="1" as="geometry" />
        </mxCell>
        <mxCell id="rpKHLiGY3gnb5k6FHx7R-35" value="loop" style="shape=umlFrame;whiteSpace=wrap;html=1;pointerEvents=0;strokeWidth=4;" vertex="1" parent="1">
          <mxGeometry x="10" y="530" width="1420" height="170" as="geometry" />
        </mxCell>
        <mxCell id="rpKHLiGY3gnb5k6FHx7R-36" value="Za svaku rezervaciju" style="text;align=center;fontStyle=1;verticalAlign=middle;spacingLeft=3;spacingRight=3;strokeColor=none;rotatable=0;points=[[0,0.5],[1,0.5]];portConstraint=eastwest;html=1;" vertex="1" parent="1">
          <mxGeometry x="110" y="540" width="80" height="26" as="geometry" />
        </mxCell>
        <mxCell id="rpKHLiGY3gnb5k6FHx7R-41" value="CreateReservationCard(res, acommodation)" style="html=1;verticalAlign=bottom;endArrow=block;curved=0;rounded=0;" edge="1" parent="1">
          <mxGeometry x="0.0526" y="70" width="80" relative="1" as="geometry">
            <mxPoint x="490" y="560" as="sourcePoint" />
            <mxPoint x="489" y="610" as="targetPoint" />
            <Array as="points">
              <mxPoint x="550" y="560" />
              <mxPoint x="550" y="610" />
            </Array>
            <mxPoint y="1" as="offset" />
          </mxGeometry>
        </mxCell>
        <mxCell id="rpKHLiGY3gnb5k6FHx7R-43" value="Ispis kartica na ekranu" style="html=1;verticalAlign=bottom;endArrow=open;dashed=1;endSize=8;curved=0;rounded=0;" edge="1" parent="1" source="rpKHLiGY3gnb5k6FHx7R-16">
          <mxGeometry x="0.0609" y="20" relative="1" as="geometry">
            <mxPoint x="290" y="650" as="sourcePoint" />
            <mxPoint x="330" y="640" as="targetPoint" />
            <Array as="points">
              <mxPoint x="390" y="640" />
            </Array>
            <mxPoint as="offset" />
          </mxGeometry>
        </mxCell>
        <mxCell id="rpKHLiGY3gnb5k6FHx7R-45" value="" style="line;strokeWidth=2;fillColor=none;align=left;verticalAlign=middle;spacingTop=-1;spacingLeft=3;spacingRight=3;rotatable=0;labelPosition=right;points=[];portConstraint=eastwest;strokeColor=inherit;perimeterSpacing=0;dashed=1;" vertex="1" parent="1">
          <mxGeometry y="410" width="970" height="8" as="geometry" />
        </mxCell>
        <mxCell id="rpKHLiGY3gnb5k6FHx7R-46" value="RescheduleClick(object sender, RoutedEventArgs e)" style="endArrow=block;endFill=1;html=1;edgeStyle=orthogonalEdgeStyle;align=left;verticalAlign=top;rounded=0;" edge="1" parent="1" target="rpKHLiGY3gnb5k6FHx7R-16">
          <mxGeometry x="-0.9574" y="20" relative="1" as="geometry">
            <mxPoint x="20" y="800" as="sourcePoint" />
            <mxPoint x="260" y="800" as="targetPoint" />
            <Array as="points">
              <mxPoint x="370" y="800" />
              <mxPoint x="370" y="800" />
            </Array>
            <mxPoint as="offset" />
          </mxGeometry>
        </mxCell>
        <mxCell id="rpKHLiGY3gnb5k6FHx7R-47" value="1" style="edgeLabel;resizable=0;html=1;align=left;verticalAlign=bottom;" connectable="0" vertex="1" parent="rpKHLiGY3gnb5k6FHx7R-46">
          <mxGeometry x="-1" relative="1" as="geometry" />
        </mxCell>
        <mxCell id="rpKHLiGY3gnb5k6FHx7R-51" value="new RescheduleRequestForm(reservation, repo, user)" style="endArrow=block;endFill=1;html=1;edgeStyle=orthogonalEdgeStyle;align=left;verticalAlign=top;rounded=0;" edge="1" parent="1" target="rpKHLiGY3gnb5k6FHx7R-53">
          <mxGeometry x="-1" relative="1" as="geometry">
            <mxPoint x="490" y="830" as="sourcePoint" />
            <mxPoint x="640" y="830" as="targetPoint" />
            <Array as="points">
              <mxPoint x="650" y="830" />
              <mxPoint x="650" y="830" />
            </Array>
          </mxGeometry>
        </mxCell>
        <mxCell id="rpKHLiGY3gnb5k6FHx7R-52" value="1" style="edgeLabel;resizable=0;html=1;align=left;verticalAlign=bottom;" connectable="0" vertex="1" parent="rpKHLiGY3gnb5k6FHx7R-51">
          <mxGeometry x="-1" relative="1" as="geometry" />
        </mxCell>
        <mxCell id="rpKHLiGY3gnb5k6FHx7R-53" value="RescheduleRequestForm" style="shape=umlLifeline;perimeter=lifelinePerimeter;whiteSpace=wrap;html=1;container=1;dropTarget=0;collapsible=0;recursiveResize=0;outlineConnect=0;portConstraint=eastwest;newEdgeStyle={&quot;curved&quot;:0,&quot;rounded&quot;:0};" vertex="1" parent="1">
          <mxGeometry x="630" y="10" width="140" height="1510" as="geometry" />
        </mxCell>
        <mxCell id="rpKHLiGY3gnb5k6FHx7R-54" value="show form (old dates pre-filled)" style="html=1;verticalAlign=bottom;endArrow=open;dashed=1;endSize=8;curved=0;rounded=0;" edge="1" parent="1" source="rpKHLiGY3gnb5k6FHx7R-53" target="rpKHLiGY3gnb5k6FHx7R-13">
          <mxGeometry relative="1" as="geometry">
            <mxPoint x="630" y="860" as="sourcePoint" />
            <mxPoint x="550" y="860" as="targetPoint" />
            <Array as="points">
              <mxPoint x="480" y="880" />
              <mxPoint x="380" y="880" />
              <mxPoint x="200" y="880" />
            </Array>
          </mxGeometry>
        </mxCell>
        <mxCell id="rpKHLiGY3gnb5k6FHx7R-55" value="&lt;div&gt;select StartDate (new)&lt;/div&gt;&lt;div&gt;&lt;br&gt;&lt;/div&gt;" style="endArrow=block;endFill=1;html=1;edgeStyle=orthogonalEdgeStyle;align=left;verticalAlign=top;rounded=0;" edge="1" parent="1" target="rpKHLiGY3gnb5k6FHx7R-53">
          <mxGeometry x="-0.9706" y="40" relative="1" as="geometry">
            <mxPoint x="20" y="940" as="sourcePoint" />
            <mxPoint x="180" y="940" as="targetPoint" />
            <Array as="points">
              <mxPoint x="550" y="940" />
              <mxPoint x="550" y="940" />
            </Array>
            <mxPoint as="offset" />
          </mxGeometry>
        </mxCell>
        <mxCell id="rpKHLiGY3gnb5k6FHx7R-56" value="1" style="edgeLabel;resizable=0;html=1;align=left;verticalAlign=bottom;" connectable="0" vertex="1" parent="rpKHLiGY3gnb5k6FHx7R-55">
          <mxGeometry x="-1" relative="1" as="geometry" />
        </mxCell>
        <mxCell id="rpKHLiGY3gnb5k6FHx7R-57" value="&lt;div&gt;select EndDate (new)&lt;/div&gt;&lt;div&gt;&lt;br&gt;&lt;/div&gt;" style="endArrow=block;endFill=1;html=1;edgeStyle=orthogonalEdgeStyle;align=left;verticalAlign=top;rounded=0;" edge="1" parent="1">
          <mxGeometry x="-0.9705" y="40" relative="1" as="geometry">
            <mxPoint x="20" y="1000" as="sourcePoint" />
            <mxPoint x="699" y="1000" as="targetPoint" />
            <Array as="points">
              <mxPoint x="550" y="1000" />
              <mxPoint x="550" y="1000" />
            </Array>
            <mxPoint as="offset" />
          </mxGeometry>
        </mxCell>
        <mxCell id="rpKHLiGY3gnb5k6FHx7R-58" value="1" style="edgeLabel;resizable=0;html=1;align=left;verticalAlign=bottom;" connectable="0" vertex="1" parent="rpKHLiGY3gnb5k6FHx7R-57">
          <mxGeometry x="-1" relative="1" as="geometry" />
        </mxCell>
        <mxCell id="rpKHLiGY3gnb5k6FHx7R-59" value="click &quot;Potvrdi&quot;&amp;nbsp;(Submit_Click)" style="endArrow=block;endFill=1;html=1;edgeStyle=orthogonalEdgeStyle;align=left;verticalAlign=top;rounded=0;" edge="1" parent="1">
          <mxGeometry x="-0.9706" y="30" relative="1" as="geometry">
            <mxPoint x="20" y="1040" as="sourcePoint" />
            <mxPoint x="699" y="1040" as="targetPoint" />
            <Array as="points">
              <mxPoint x="550" y="1040" />
              <mxPoint x="550" y="1040" />
            </Array>
            <mxPoint as="offset" />
          </mxGeometry>
        </mxCell>
        <mxCell id="rpKHLiGY3gnb5k6FHx7R-60" value="1" style="edgeLabel;resizable=0;html=1;align=left;verticalAlign=bottom;" connectable="0" vertex="1" parent="rpKHLiGY3gnb5k6FHx7R-59">
          <mxGeometry x="-1" relative="1" as="geometry" />
        </mxCell>
        <mxCell id="rpKHLiGY3gnb5k6FHx7R-61" value="alt" style="shape=umlFrame;whiteSpace=wrap;html=1;pointerEvents=0;labelBorderColor=none;fontStyle=1;textShadow=1;labelBackgroundColor=#CCCCCC;strokeWidth=3;perimeterSpacing=11;" vertex="1" parent="1">
          <mxGeometry y="1080" width="1440" height="480" as="geometry" />
        </mxCell>
        <mxCell id="rpKHLiGY3gnb5k6FHx7R-62" value="[datumi nevalidni]" style="text;align=center;fontStyle=1;verticalAlign=middle;spacingLeft=3;spacingRight=3;strokeColor=none;rotatable=0;points=[[0,0.5],[1,0.5]];portConstraint=eastwest;html=1;" vertex="1" parent="1">
          <mxGeometry x="70" y="1100" width="80" height="26" as="geometry" />
        </mxCell>
        <mxCell id="rpKHLiGY3gnb5k6FHx7R-63" style="edgeStyle=orthogonalEdgeStyle;rounded=0;orthogonalLoop=1;jettySize=auto;html=1;exitX=1;exitY=0.5;exitDx=0;exitDy=0;" edge="1" parent="1" source="rpKHLiGY3gnb5k6FHx7R-62" target="rpKHLiGY3gnb5k6FHx7R-62">
          <mxGeometry relative="1" as="geometry" />
        </mxCell>
        <mxCell id="rpKHLiGY3gnb5k6FHx7R-64" value="" style="line;strokeWidth=2;fillColor=none;align=left;verticalAlign=middle;spacingTop=-1;spacingLeft=3;spacingRight=3;rotatable=0;labelPosition=right;points=[];portConstraint=eastwest;strokeColor=inherit;perimeterSpacing=0;dashed=1;" vertex="1" parent="1">
          <mxGeometry y="1200" width="970" height="8" as="geometry" />
        </mxCell>
        <mxCell id="rpKHLiGY3gnb5k6FHx7R-65" value="&lt;div&gt;MessageBox &quot;Datum početka mora biti pre datuma završetka&quot;&lt;/div&gt;&lt;div&gt;&lt;br&gt;&lt;/div&gt;" style="html=1;verticalAlign=bottom;endArrow=open;dashed=1;endSize=8;curved=0;rounded=0;exitX=0.5;exitY=0.723;exitDx=0;exitDy=0;exitPerimeter=0;" edge="1" parent="1">
          <mxGeometry x="0.3515" relative="1" as="geometry">
            <mxPoint x="700" y="1160" as="sourcePoint" />
            <mxPoint x="19.25" y="1160" as="targetPoint" />
            <mxPoint as="offset" />
          </mxGeometry>
        </mxCell>
        <mxCell id="rpKHLiGY3gnb5k6FHx7R-66" value="[datumi validni]" style="text;align=center;fontStyle=1;verticalAlign=middle;spacingLeft=3;spacingRight=3;strokeColor=none;rotatable=0;points=[[0,0.5],[1,0.5]];portConstraint=eastwest;html=1;" vertex="1" parent="1">
          <mxGeometry x="70" y="1230" width="80" height="26" as="geometry" />
        </mxCell>
        <mxCell id="rpKHLiGY3gnb5k6FHx7R-67" value="RescheduleRequestRepository" style="shape=umlLifeline;perimeter=lifelinePerimeter;whiteSpace=wrap;html=1;container=1;dropTarget=0;collapsible=0;recursiveResize=0;outlineConnect=0;portConstraint=eastwest;newEdgeStyle={&quot;curved&quot;:0,&quot;rounded&quot;:0};" vertex="1" parent="1">
          <mxGeometry x="810" y="10" width="190" height="1250" as="geometry" />
        </mxCell>
        <mxCell id="rpKHLiGY3gnb5k6FHx7R-68" value="Add(new RescheduleRequest)" style="endArrow=block;endFill=1;html=1;edgeStyle=orthogonalEdgeStyle;align=left;verticalAlign=top;rounded=0;" edge="1" parent="1" target="rpKHLiGY3gnb5k6FHx7R-67">
          <mxGeometry x="-0.9022" y="30" relative="1" as="geometry">
            <mxPoint x="700" y="1260" as="sourcePoint" />
            <mxPoint x="860" y="1260" as="targetPoint" />
            <Array as="points">
              <mxPoint x="840" y="1260" />
              <mxPoint x="840" y="1260" />
            </Array>
            <mxPoint as="offset" />
          </mxGeometry>
        </mxCell>
        <mxCell id="rpKHLiGY3gnb5k6FHx7R-69" value="1" style="edgeLabel;resizable=0;html=1;align=left;verticalAlign=bottom;" connectable="0" vertex="1" parent="rpKHLiGY3gnb5k6FHx7R-68">
          <mxGeometry x="-1" relative="1" as="geometry" />
        </mxCell>
        <mxCell id="rpKHLiGY3gnb5k6FHx7R-70" value="GetOwnerByAccommodation(reservation.AccommodationId)" style="endArrow=block;endFill=1;html=1;edgeStyle=orthogonalEdgeStyle;align=left;verticalAlign=top;rounded=0;" edge="1" parent="1" target="rpKHLiGY3gnb5k6FHx7R-22">
          <mxGeometry x="-1" relative="1" as="geometry">
            <mxPoint x="700" y="1310" as="sourcePoint" />
            <mxPoint x="860" y="1310" as="targetPoint" />
            <Array as="points">
              <mxPoint x="1020" y="1310" />
              <mxPoint x="1020" y="1310" />
            </Array>
          </mxGeometry>
        </mxCell>
        <mxCell id="rpKHLiGY3gnb5k6FHx7R-71" value="1" style="edgeLabel;resizable=0;html=1;align=left;verticalAlign=bottom;" connectable="0" vertex="1" parent="rpKHLiGY3gnb5k6FHx7R-70">
          <mxGeometry x="-1" relative="1" as="geometry" />
        </mxCell>
        <mxCell id="rpKHLiGY3gnb5k6FHx7R-72" value="OwnerId" style="html=1;verticalAlign=bottom;endArrow=open;dashed=1;endSize=8;curved=0;rounded=0;" edge="1" parent="1">
          <mxGeometry x="0.8537" y="-10" relative="1" as="geometry">
            <mxPoint x="1115.1299999999997" y="1370" as="sourcePoint" />
            <mxPoint x="694.88" y="1370" as="targetPoint" />
            <Array as="points">
              <mxPoint x="965.63" y="1370" />
            </Array>
            <mxPoint x="1" as="offset" />
          </mxGeometry>
        </mxCell>
        <mxCell id="rpKHLiGY3gnb5k6FHx7R-73" value="RescheduleNotification" style="shape=umlLifeline;perimeter=lifelinePerimeter;whiteSpace=wrap;html=1;container=1;dropTarget=0;collapsible=0;recursiveResize=0;outlineConnect=0;portConstraint=eastwest;newEdgeStyle={&quot;curved&quot;:0,&quot;rounded&quot;:0};" vertex="1" parent="1">
          <mxGeometry x="1280" y="10" width="140" height="1410" as="geometry" />
        </mxCell>
        <mxCell id="rpKHLiGY3gnb5k6FHx7R-74" value="Add(new RescheduleNotification)" style="endArrow=block;endFill=1;html=1;edgeStyle=orthogonalEdgeStyle;align=left;verticalAlign=top;rounded=0;" edge="1" parent="1">
          <mxGeometry x="-1" relative="1" as="geometry">
            <mxPoint x="700" y="1420" as="sourcePoint" />
            <mxPoint x="1349.4999999999995" y="1420" as="targetPoint" />
            <Array as="points">
              <mxPoint x="991" y="1421" />
            </Array>
          </mxGeometry>
        </mxCell>
        <mxCell id="rpKHLiGY3gnb5k6FHx7R-75" value="1" style="edgeLabel;resizable=0;html=1;align=left;verticalAlign=bottom;" connectable="0" vertex="1" parent="rpKHLiGY3gnb5k6FHx7R-74">
          <mxGeometry x="-1" relative="1" as="geometry" />
        </mxCell>
        <mxCell id="rpKHLiGY3gnb5k6FHx7R-76" value="MessageBox &quot;Zahtev je poslat vlasniku!&quot;" style="html=1;verticalAlign=bottom;endArrow=open;dashed=1;endSize=8;curved=0;rounded=0;" edge="1" parent="1" target="rpKHLiGY3gnb5k6FHx7R-13">
          <mxGeometry relative="1" as="geometry">
            <mxPoint x="700" y="1480" as="sourcePoint" />
            <mxPoint x="620" y="1480" as="targetPoint" />
          </mxGeometry>
        </mxCell>
        <mxCell id="rpKHLiGY3gnb5k6FHx7R-77" value="Close form" style="html=1;verticalAlign=bottom;endArrow=open;dashed=1;endSize=8;curved=0;rounded=0;" edge="1" parent="1">
          <mxGeometry relative="1" as="geometry">
            <mxPoint x="701" y="1520" as="sourcePoint" />
            <mxPoint x="490" y="1520" as="targetPoint" />
          </mxGeometry>
        </mxCell>
      </root>
    </mxGraphModel>
  </diagram>
</mxfile>
